<svg xmlns="http://www.w3.org/2000/svg" viewBox="0 0 240 240" width="240" height="240">
  <defs>
    <radialGradient id="bun" cx="0.42" cy="0.35" r="0.75">
      <stop offset="0" stop-color="#FFFFFF"/>
      <stop offset="0.7" stop-color="#FBF6EE"/>
      <stop offset="1" stop-color="#EADFCB"/>
    </radialGradient>
    <linearGradient id="plate" x1="0" y1="0" x2="0" y2="1">
      <stop offset="0" stop-color="#E8E8EA"/>
      <stop offset="1" stop-color="#C9C9CD"/>
    </linearGradient>
  </defs>
  <!-- 阴影 -->
  <ellipse cx="120" cy="200" rx="78" ry="14" fill="rgba(0,0,0,0.18)"/>
  <!-- 盘子 -->
  <ellipse cx="120" cy="190" rx="80" ry="20" fill="url(#plate)" stroke="#B5B5BA" stroke-width="2"/>
  <ellipse cx="120" cy="186" rx="60" ry="13" fill="#F2F2F4"/>
  <!-- 馒头本体 -->
  <path d="M58 180 Q50 110 120 96 Q190 110 182 180 Q150 192 120 192 Q90 192 58 180 Z" fill="url(#bun)" stroke="#E0D2BB" stroke-width="2.5"/>
  <!-- 顶部高光 -->
  <ellipse cx="100" cy="128" rx="30" ry="18" fill="#FFFFFF" opacity="0.55"/>
  <!-- 蒸汽 -->
  <path d="M104 86 Q96 72 106 60 Q116 50 108 38" stroke="#FFFFFF" stroke-width="3.5" fill="none" opacity="0.5" stroke-linecap="round"/>
  <path d="M134 86 Q142 72 132 60 Q122 50 130 38" stroke="#FFFFFF" stroke-width="3.5" fill="none" opacity="0.5" stroke-linecap="round"/>
</svg>
